<svg xmlns="http://www.w3.org/2000/svg" viewBox="0 0 600 290.8441162"><path d="M74.045 243.971c.057 1.85.2 4.345.243 5.908h-1.19c-.014-.043-.157-.745-.172-.788-1.247-4.474-2.48-6.152-3.699-7.113-1.634-1.376-4.201-2.165-7.743-2.15-3.513 0-6.251.93-7.858 2.724-.931 1.046-1.462 2.509-1.419 4.23.1 3.154 2.25 4.746 6.466 7.112 1.563.875 3.757 2.036 7.858 4.216 6.152 3.282 9.535 7.026 9.693 12.775.23 8.303-7.14 12.877-14.782 12.89-9.522.028-15.716-5.104-15.716-9.936 0-1.779 1.046-2.954 2.696-2.954 2.509 0 3.11 1.519 4.129 4.589 1.377 4.114 5.133 6.252 8.904 6.252 4.417 0 8.403-2.612 8.345-7.63-.129-2.51-1.534-5.835-7.01-8.804-1.966-1.075-6.34-3.455-8.116-4.458-4.174-2.352-8.145-4.933-8.317-10.827-.072-2.838.76-5.39 2.538-7.427.415-.444 1.175-1.204 1.175-1.204H38.542v30.671c0 .474.057.975.1 1.433 1.234 10.827 9.45 17.364 22.928 17.364 12.288 0 20.705-6.509 21.938-17.32.058-.459.1-.975.1-1.449v-30.713h-9.577c.014.444 0 2.122.014 2.61zm39.015 18.397l-4.846-2.71c-2.71-1.506-3.843-3.04-3.843-5.061 0-2.911 2.28-4.517 5.907-4.517 2.238 0 3.93.515 4.932 1.405.76.63 1.521 1.72 2.238 4.675h.803c0-1.004-.043-2.195-.043-3.37 0-1.147 0-2.065.043-3.255-1.936-.503-4.345-.932-6.41-.932-7.685 0-11.227 3.427-11.227 8.058 0 3.8 2.237 5.75 4.89 7.212l5.118 2.925c3.284 1.85 4.417 3.829 4.417 5.478 0 3.04-2.438 4.76-5.52 4.76-3.672 0-5.478-1.046-6.625-2.107-.674-.632-1.564-2.108-2.28-4.89h-.846c.043 1.018.043 1.894.043 3.083 0 1.262 0 2.494-.043 3.627 2.237 1.133 5.45 1.736 8.818 1.736 5.821 0 10.424-3.213 10.424-8.36 0-3.714-2.065-5.577-5.95-7.757zm32.104-11.142c-2.322-1.691-5.19-2.623-8.402-2.623-8.474 0-15.185 5.836-15.185 15.328 0 5.348 2.581 9.951 6.582 12.403 2.236 1.433 4.932 2.194 7.886 2.194 9.162 0 14.725-6.468 14.725-15.658 0-4.976-2.15-9.106-5.606-11.644zm-8.23 26.025c-2.825 0-4.933-1.304-6.539-3.325-2.15-2.612-3.37-6.927-3.37-12.074 0-7.5 3.328-11.859 8.519-11.859 3.082 0 5.104 1.363 6.752 3.629 1.893 2.538 3.04 6.51 3.04 11.441 0 7.47-3.04 12.188-8.402 12.188zm92.727-26.025c-2.322-1.691-5.19-2.623-8.402-2.623-8.474 0-15.185 5.836-15.185 15.328 0 5.348 2.581 9.951 6.582 12.403 2.236 1.433 4.932 2.194 7.886 2.194 9.162 0 14.726-6.468 14.726-15.658 0-4.976-2.151-9.106-5.607-11.644zm-8.23 26.025c-2.824 0-4.932-1.304-6.539-3.325-2.15-2.612-3.369-6.927-3.369-12.074 0-7.5 3.327-11.859 8.518-11.859 3.068 0 5.104 1.363 6.752 3.629 1.893 2.538 3.04 6.51 3.04 11.441 0 7.47-3.04 12.188-8.402 12.188zm95.209-2.394c-.346.415-.934.874-1.563 1.09-1.176.415-3.714.588-6.038.588-1.677 0-2.694-.114-3.24-.344-.387-.16-.673-.46-.76-.919-.343-1.52-.343-5.735-.343-11.6 4.015 0 5.664.13 6.624.33.631.144.975.345 1.303.76.39.502.718 1.936.935 3.299h.672c-.028-1.736-.028-3.915-.028-4.819 0-1.175.028-3.914.07-5.004h-.671c-.331 1.55-.632 2.524-.934 3.026-.199.344-.588.631-.917.76-.804.344-2.365.416-7.054.416 0-4.46.084-9.564.3-10.84.087-.417.459-.76 1.019-.832.916-.13 2.064-.173 2.853-.173 2.582 0 4.43.201 5.29.46.459.128 1.047.544 1.306 1.06.242.503.716 1.736 1.176 3.786h.759c-.128-2.28-.128-4.803-.128-6.61-5.478.029-25.065.029-26.197.029-1.132 0-2.61 0-4.847-.072v.588c2.022.287 2.61.459 3.04.674.33.172.502.46.588.76.129.501.215 1.39.243 3.083.1 2.782.13 7.083.259 14.624-8.775-11.47-12.188-15.987-14.798-19.729-.674.042-2.623.072-4.058.072h-10.295c-1.132 0-2.609 0-4.846-.072v.588c2.022.287 2.609.459 3.04.674.33.172.502.46.587.76.13.501.215 1.39.245 3.083.1 2.782.128 7.083.258 14.624-8.776-11.47-12.189-15.987-14.798-19.729-.673.042-2.623.072-4.058.072-1.132 0-4.43 0-5.405-.072v.588c1.448.157 2.408.459 2.838.588.876.301 1.22.846 1.22 2.107 0 1.19-.13 18.354-.172 20.204-.044 1.433-.172 2.58-.287 3.169-.086.387-.388.672-.761.845-.515.216-1.362.415-2.752.588v.588a304.93 304.93 0 0 1 4.974-.071c1.148 0 2.582 0 4.862.071v-.588c-2.065-.329-2.739-.501-3.169-.718-.33-.17-.46-.428-.545-.715-.13-.502-.258-1.607-.301-3.3-.072-2.608-.158-12.143-.287-19.7 3.714 4.776 14.77 19.2 19.573 25.782l.888-.158c0-.646-.172-4.317-.172-12.245 0-5.307.087-10.955.13-11.93.042-1.449.158-2.495.3-3.083.072-.387.416-.703.746-.846 2.323-.946 5.248-.157 5.621 0 .86.358 1.22.846 1.22 2.107 0 1.19-.13 18.354-.174 20.204-.043 1.433-.172 2.58-.286 3.169-.087.387-.387.672-.76.845-.517.216-1.362.415-2.753.588v.588a304.3 304.3 0 0 1 4.99-.071c1.132 0 2.566 0 4.846.071v-.588c-2.064-.329-2.753-.501-3.169-.718-.33-.17-.458-.428-.545-.715-.128-.502-.258-1.607-.3-3.3-.087-2.608-.158-12.143-.288-19.7 3.714 4.776 14.769 19.2 19.572 25.782l.89-.158c0-.646-.172-4.317-.172-12.245 0-5.307.085-10.955.129-11.93.043-1.449.158-2.495.286-3.083.087-.387.359-.675.761-.846 2.537-1.047 5.448-.115 5.864.129.387.243.502.545.588.975.3 1.29.3 4.717.3 11.844 0 7.513-.042 11.142-.33 12.445-.1.43-.3.632-.601.846-.373.216-1.09.46-2.911.674v.588c1.936-.043 6.926-.071 8.06-.071 5.821 0 8.644 0 14.51.028.127-2.997.3-5.692.473-7.514l-.718-.028c-.6 2.094-1.275 3.713-1.777 4.517zM194.776 262.74c4.559-.888 7.341-3.412 7.341-6.624 0-3.627-1.65-6.826-10.267-6.826-1.132 0-5.72.044-6.524.044-1.147 0-3.8-.044-5.95-.086v.588c1.85.258 2.524.459 2.954.717.373.215.501.545.588.889.3 1.304.3 4.718.3 11.93 0 7.555-.014 11.083-.315 12.346-.086.387-.401.817-.703.988-.3.173-.831.458-1.993.458-.889 0-1.964-.428-2.767-1.003-1.018-.703-2.322-2.235-4.272-4.903-.703-.96-3.413-5.133-4.675-7.17 4.804-1.434 6.237-4.803 6.237-7.255 0-3.627-1.476-7.543-10.295-7.543-1.133 0-5.018.044-5.821.044-1.133 0-4.674 0-6.825-.086v.588c1.85.258 2.538.459 2.954.717.372.172.501.587.588.932.286 1.261.286 4.675.286 11.887 0 7.555-.029 11.356-.33 12.489-.086.387-.287.644-.587.802-.43.216-1.105.46-2.911.674v.588c1.936-.043 5.104-.071 6.236-.071 1.19 0 5.234.028 6.797.071v-.588c-1.935-.244-2.91-.458-3.298-.718a1.54 1.54 0 0 1-.702-.845c-.259-.889-.43-2.826-.43-11.098.674.1 2.107.129 2.695.129h.474c2.15 3.67 6.05 10.152 8.546 13.306 4.014-.23 7.871-.23 9.577-.23 1.19 0 7.356.044 9.75.044 8.561-.043 12.16-3.327 12.16-8.273 0-4.13-3.384-6.481-8.818-6.912zm-31.89.847c-.645 0-1.648-.043-2.494-.129 0-6.41.043-10.08.13-11.815.041-1.133.243-1.22 1.648-1.22 5.348 0 7.37 2.108 7.37 6.669 0 5.19-2.653 6.495-6.653 6.495zm25.266-11.859c.042-.96.415-1.218 1.648-1.218 5.277 0 7.328 1.348 7.328 5.864 0 2.782-1.176 5.062-3.786 5.693-.76.215-2.494.373-4.187.373h-1.133c0-6.367.043-9.063.13-10.712zm4.344 24.891c-1.993 0-2.623-.084-3.385-.428-.371-.16-.716-.618-.787-1.005-.259-.975-.302-3.284-.302-11.557h.932c3.455 0 4.89.13 6.323.718 1.936.803 3.04 2.953 3.04 5.563 0 4.56-2.15 6.71-5.821 6.71zm161.438-27.5v.602c1.993.258 2.838.502 3.269.716.33.158.588.417.674.718.13.517.173 1.261.244 3.083.057 1.491.13 4.832.13 7.298 0 5.893-.073 8.518-.76 10.425-1.19 3.296-4.662 4.488-8.175 4.488-2.464 0-5.432-.762-6.695-3.556-.845-1.907-.932-5.177-.932-12.705 0-4.373.128-8.058.3-8.904.044-.344.245-.689.502-.847.387-.3 1.191-.458 3.098-.716v-.602c-1.578.043-4.961.086-6.15.086-1.148 0-4.447-.043-6.397-.086v.602c1.866.258 2.454.502 2.882.76.389.157.503.544.588.89.302 1.304.302 7.584.302 8.889 0 1.95 0 6.438.043 8.69.128 7.626 5.507 9.578 12.159 9.578 6.524 0 10.51-3.485 10.882-9.708.087-1.82.173-3.857.173-7.083.044-4.574.173-6.553.214-7.499.044-1.435.13-2.538.303-3.083.084-.387.387-.718.759-.846.501-.215 1.318-.43 2.71-.588v-.602c-2.336.043-3.9.086-5.032.086-1.148 0-2.798 0-5.091-.086zm30.713 0v.602c2.037.286 2.64.46 3.055.674.343.158.516.459.603.76.127.502.199 1.39.242 3.083.086 2.81.13 7.126.26 14.711-8.819-11.528-12.247-16.059-14.87-19.83-.674.043-2.64.086-4.073.086-1.132 0-4.444 0-5.42-.086v.602c1.434.158 2.409.46 2.84.588.888.286 1.219.846 1.219 2.107 0 1.19-.115 18.44-.158 20.303-.044 1.436-.173 2.582-.301 3.185-.086.372-.389.672-.76.845-.502.201-1.348.415-2.753.588v.588c2.322-.043 3.857-.071 5.003-.071 1.132 0 2.58 0 4.862.071v-.588c-2.065-.344-2.755-.501-3.17-.718-.343-.17-.473-.428-.56-.715-.114-.517-.242-1.622-.285-3.312-.087-2.625-.173-12.203-.303-19.789 3.73 4.79 14.828 19.272 19.66 25.883l.889-.158c0-.646-.173-4.317-.173-12.289 0-5.334.086-11.012.13-12.001.043-1.435.172-2.495.3-3.083.086-.387.374-.674.76-.846.502-.259 1.406-.43 2.71-.588v-.602c-2.121.043-3.684.086-4.832.086-1.133 0-2.622 0-4.875-.086zm73.615 25.723c-.344.415-.932.889-1.579 1.105-1.175.415-3.726.588-6.048.588-1.693 0-2.711-.13-3.271-.344-.372-.173-.672-.46-.759-.934-.33-1.52-.33-5.75-.33-11.656 4.014 0 5.663.143 6.638.344.644.13.975.344 1.319.76.374.516.73 1.95.932 3.312h.674c-.043-1.734-.043-3.943-.043-4.832 0-1.19.043-3.943.086-5.033h-.674c-.344 1.549-.631 2.538-.932 3.04a1.96 1.96 0 0 1-.931.76c-.802.344-2.38.43-7.07.43 0-4.488.087-9.62.288-10.897.086-.416.473-.746 1.018-.847.932-.128 2.078-.157 2.882-.157 2.581 0 4.445.215 5.29.459.473.129 1.061.545 1.32 1.06.258.503.716 1.736 1.19 3.815h.76c-.129-2.295-.129-4.832-.129-6.653-5.506.043-22.928.1-31.23-.043v.602c1.405.115 2.38.33 2.882.502.76.214.931.63.931 1.104 0 .588-.3 1.95-1.145 4.115-2.452 6.266-4.488 11.084-6.354 15.714-1.734-4.587-3.77-9.75-6.178-16.101-.932-2.51-1.105-3.47-1.105-3.857s.201-.717.76-.975c.431-.173 1.477-.387 2.753-.502v-.602c-3.714.143-18.166.114-24.92 0v.602c1.82.2 2.552.46 2.967.716.389.259.503.546.603.975.287 1.306.287 4.733.287 11.902 0 7.542-.043 11.185-.33 12.503-.087.415-.301.632-.601.846-.374.2-1.105.46-2.925.674v.588c1.95-.043 5.002-.071 6.15-.071 1.191 0 4.788.028 6.351.071v-.588c-1.891-.214-2.58-.43-2.968-.674-.285-.214-.415-.545-.501-.932-.214-1.276-.387-4.575-.387-12.288 0-7.585.13-10.855.343-12.073.087-.387.26-.732.545-.933.33-.257 1.392-.644 2.826-.644 1.03 0 1.863.401 2.352.76 1.061.86 1.907 2.767 5.132 10.854 2.912 7.37 5.249 13.306 6.481 17.035h1.046c1.823-4.445 4.374-10.425 7.716-18.224 3.355-7.744 4.028-8.934 4.745-9.522.588-.502 1.591-.875 2.74-.875 1.776 0 2.308.36 2.723.616.387.259.517.546.603.975.3 1.306.3 4.733.3 11.902 0 7.542-.042 11.185-.343 12.503-.086.415-.302.632-.588.846-.387.2-1.105.46-2.925.674v.588c1.935-.043 6.94-.071 8.086-.071 5.852 0 8.675 0 14.583.028.13-3.012.286-5.72.458-7.542l-.717-.029c-.588 2.108-1.276 3.714-1.777 4.531zm25.51-3.612c-.718-.962-3.43-5.163-4.705-7.185 4.817-1.447 6.265-4.846 6.265-7.298 0-3.642-1.476-7.585-10.338-7.585-1.145 0-5.046.043-5.85.043-1.133 0-4.702 0-6.852-.086v.602c1.863.258 2.537.46 2.968.716.371.158.501.588.588.92.285 1.275.285 4.701.285 11.957 0 7.585-.028 11.399-.329 12.547-.086.371-.3.63-.588.802-.43.2-1.104.46-2.924.674v.588c1.95-.043 5.119-.071 6.264-.071 1.192 0 5.25.028 6.825.071v-.588c-1.95-.257-2.925-.473-3.312-.718-.328-.17-.63-.544-.715-.845-.26-.904-.43-2.838-.43-11.14.672.072 2.12.114 2.708.114h.474c2.166 3.685 6.107 10.122 8.604 13.307 1.993-.13 5.519-.216 8.388-.216v-.545c-1.578-.214-2.454-.718-3.055-1.146-1.018-.718-2.322-2.237-4.272-4.918zm-10.34-7.7c-.645 0-1.648-.044-2.508-.13 0-6.438.04-10.137.127-11.872.043-1.133.26-1.22 1.65-1.22 5.391 0 7.428 2.108 7.428 6.697 0 5.205-2.683 6.525-6.698 6.525zm31.359-1.234l-4.875-2.71c-2.711-1.534-3.857-3.054-3.857-5.09 0-2.91 2.294-4.531 5.937-4.531 2.235 0 3.928.516 4.946 1.405.759.63 1.535 1.735 2.25 4.688h.802c0-1.003-.04-2.193-.04-3.383 0-1.147 0-2.08.04-3.255-1.95-.516-4.358-.933-6.438-.933-7.713 0-11.27 3.428-11.27 8.088 0 3.814 2.238 5.764 4.919 7.24l5.119 2.926c3.312 1.864 4.445 3.858 4.445 5.52 0 3.04-2.452 4.775-5.55 4.775-3.683 0-5.506-1.061-6.639-2.122-.687-.632-1.576-2.108-2.293-4.903h-.846c.044 1.003.044 1.906.044 3.082 0 1.276 0 2.51-.044 3.656 2.238 1.133 5.463 1.736 8.862 1.736 5.835 0 10.452-3.228 10.452-8.389 0-3.728-2.08-5.592-5.964-7.8zm8.258-13.177v.602c1.822.2 2.538.46 2.968.716.374.259.502.546.588.975.3 1.306.3 4.733.3 11.902 0 7.542-.04 11.185-.343 12.503-.086.415-.3.632-.588.846-.387.2-1.103.46-2.925.674v.588c1.95-.043 5.005-.071 6.153-.071 1.173 0 4.773.028 6.336.071v-.588c-1.892-.214-2.566-.43-2.953-.674-.3-.214-.43-.558-.517-.932-.2-1.276-.372-4.575-.372-12.288 0-7.585.115-10.855.329-12.073.086-.387.26-.732.56-.933.344-.257 1.018-.458 2.953-.716v-.602c-1.563.043-5.163.086-6.336.086-1.148 0-4.203-.043-6.153-.086zm26.398.086c-5.506 0-7.5-.043-13.005-.086 0 1.82-.044 4.79-.13 7.083h.76c.416-2.007 1.062-3.484 1.363-4 .287-.502.76-.918 1.232-1.133.804-.33 2.067-.545 3.515-.545.802 0 1.777.043 2.623.114.717.1.974.43 1.018.847.172 1.318.216 4.573.216 11.83 0 7.54-.087 11.184-.39 12.502-.084.415-.3.632-.585.846-.387.2-1.191.46-2.983.674v.588a376.16 376.16 0 0 1 6.193-.071c1.191 0 4.834.028 6.41.071v-.588c-1.922-.214-2.68-.43-3.025-.674a1.388 1.388 0 0 1-.544-.932c-.201-1.276-.331-4.531-.331-12.245 0-7.671.13-10.854.201-12.001.043-.416.344-.746 1.061-.847a37.617 37.617 0 0 1 2.796-.114c1.318 0 2.466.215 3.299.588.471.215.944.588 1.247 1.09.242.516.917 1.993 1.347 4h.804c-.086-2.294-.13-5.262-.13-7.083-5.506.043-7.456.086-12.962.086zm34.443 25.637c-.331.415-.92.889-1.566 1.105-1.189.415-3.727.588-6.049.588-1.692 0-2.726-.13-3.27-.344-.387-.173-.673-.46-.76-.934-.343-1.52-.343-5.75-.343-11.656 4.028 0 5.677.143 6.652.344.646.13.975.344 1.319.76.387.516.717 1.95.918 3.312h.688c-.043-1.734-.043-3.943-.043-4.832 0-1.19.043-3.943.086-5.033h-.674c-.344 1.549-.645 2.538-.932 3.04-.214.344-.588.645-.932.76-.802.344-2.38.43-7.082.43 0-4.488.084-9.62.3-10.897.087-.416.459-.746 1.019-.847a25.865 25.865 0 0 1 2.881-.157c2.582 0 4.445.215 5.29.459.474.129 1.062.545 1.321 1.06.258.503.716 1.736 1.177 3.815h.773c-.13-2.295-.13-4.832-.13-6.653-5.506.043-7.972.043-13.478.043-1.146 0-5.764-.043-7.8-.086v.602c1.835.2 2.553.46 2.968.716.387.259.502.546.603.975.286 1.306.286 4.733.286 11.902 0 7.542-.029 11.185-.33 12.503-.086.415-.3.632-.587.846-.387.2-1.105.46-2.94.674v.588c1.965-.043 6.954-.071 8.1-.071 5.852 0 8.69 0 14.569.028.13-3.012.3-5.72.473-7.542l-.73-.029c-.589 2.108-1.263 3.714-1.777 4.531zm18.265-12.546l-4.875-2.71c-2.709-1.534-3.842-3.054-3.842-5.09 0-2.91 2.279-4.531 5.921-4.531 2.25 0 3.944.516 4.962 1.405.759.63 1.52 1.735 2.25 4.688h.804c0-1.003-.043-2.193-.043-3.383 0-1.147 0-2.08.043-3.255-1.95-.516-4.373-.933-6.453-.933-7.7 0-11.27 3.428-11.27 8.088 0 3.814 2.251 5.764 4.92 7.24l5.131 2.926c3.299 1.864 4.445 3.858 4.445 5.52 0 3.04-2.452 4.775-5.55 4.775-3.683 0-5.504-1.061-6.651-2.122-.675-.632-1.563-2.108-2.294-4.903h-.848c.059 1.003.059 1.906.059 3.082 0 1.276 0 2.51-.059 3.656 2.253 1.133 5.466 1.736 8.862 1.736 5.852 0 10.467-3.228 10.467-8.389 0-3.728-2.077-5.592-5.98-7.8z" fill="#1d1d1b"/><path d="M38.542 129.492v77.013h206.505V79.192C177.77 90.764 142.57 106.78 81.602 138.497l-43.06-9.005zM38.542 0v90.548C107.11 65.671 180.18 49.884 245.047 44.78V0H38.542z" fill="#ffd500"/><path d="M381.994 155.732c0 19.673-10.551 30.942-28.936 30.942-18.166 0-28.175-10.983-28.175-30.942V76.51h-22.87v82.003c0 15.715 4.503 28.06 13.393 36.693 8.059 8.058 19.759 12.317 33.826 12.317 12.761 0 24.16-4.545 33.007-12.575v11.055h22.625V76.51h-22.87v79.222zm77.2-117.577H436.31v39.101h-15.744v18.57h15.744v74.373c0 21.752 13.465 35.804 34.298 35.804h15.241v-20.318h-11.944c-9.893 0-14.712-5.233-14.712-16.002V95.825h26.656V77.256h-26.656v-39.1zm123.44 135.07c-9.075 10.066-15.9 13.45-26.984 13.45-11.644 0-20.978-4.575-27.073-13.235-5.475-7.629-7.698-16.934-7.698-32.19 0-15.242 2.223-24.548 7.686-32.162 6.107-8.69 15.441-13.263 27.085-13.263 11.255 0 18.066 3.34 26.984 13.206l1.563 1.735L600 95.925l-1.535-1.678c-13.034-14.052-24.634-19.284-42.815-19.284-35.56 0-57.656 25.408-57.656 66.287 0 40.879 22.096 66.273 57.656 66.273 18.181 0 29.781-5.22 42.815-19.258l1.535-1.648-15.803-15.156-1.563 1.763zM38.542 90.547c-13.034 4.733-25.91 9.78-38.542 15.156l81.602 19.801C147.616 91.18 188.624 75.55 267.644 63.362V43.403c-7.399.316-14.94.76-22.597 1.376-64.868 5.105-137.938 20.892-206.505 45.77z" fill="#6f6f6e"/></svg>